<?xml version="1.0" encoding="iso-8859-1"?>
<!-- Generator: Adobe Illustrator 19.0.0, SVG Export Plug-In . SVG Version: 6.00 Build 0)  -->
<svg version="1.1" id="Capa_1" xmlns="http://www.w3.org/2000/svg" xmlns:xlink="http://www.w3.org/1999/xlink" x="0px" y="0px"
	 viewBox="0 0 512 512" style="enable-background:new 0 0 512 512;" xml:space="preserve">
<g>
	<g>
		<path style="fill:#FFD273;" d="M185.816,164.58c7.828,2.098,15.948-2.591,18.046-10.419l10.028-37.426l6.98-26.045l48.435,12.979
			l3.508-13.087c3.529-13.171-4.359-26.834-17.531-30.363c10.598-39.552-50.286-57.924-63.27-35.433
			c-5.36-20.004-43.071-18.396-51.925-3.061c-17.441-4.673-30.368,11.04-33.896,24.211l-3.507,13.088l32.792,8.786l-6.979,26.045
			l-4.275,15.954c-2.098,7.828,2.592,15.948,10.42,18.046c7.828,2.098,15.948-2.591,18.046-10.419l4.274-15.953
			c2.098-7.828,10.219-12.517,18.047-10.42c7.828,2.098,12.516,10.219,10.419,18.047L175.4,146.535
			C173.301,154.362,177.987,162.482,185.816,164.58z"/>
		<path style="fill:#FFD273;" d="M372.211,209.37c-6.722-25.085-70.286-23.099-70.286,17.851c-13.636,0-24.792,11.156-24.792,24.792
			v13.549h50.145v26.964v38.746c0,8.104,6.63,14.734,14.734,14.734s14.735-6.63,14.734-14.735v-38.745
			c0-8.104,6.631-14.735,14.734-14.734c8.106,0,14.736,6.63,14.736,14.734l-0.001,16.516c0.001,8.104,6.631,14.735,14.735,14.735
			c8.104,0,14.734-6.631,14.734-14.734v-16.517v-26.964h33.949v-13.549c0-13.637-8.42-32.158-26.475-32.158
			C418.575,202.75,382.565,191.436,372.211,209.37z"/>
	</g>
	<g>
		<path style="fill:#FF974A;" d="M327.278,265.56h-50.145v148.63v37.739v37.737c0,6.777,5.544,12.322,12.321,12.322h147.858
			c6.776,0,12.32-5.545,12.32-12.322l0.001-37.737l-0.001-8.468l0.001-29.272V292.525V265.56h-33.949v26.964v16.517
			c0,8.104-6.631,14.734-14.734,14.734c-8.104,0-14.734-6.631-14.735-14.735l0.001-16.516c0-8.104-6.631-14.734-14.736-14.734
			c-8.103-0.001-14.734,6.63-14.734,14.734v38.745c0.001,8.105-6.63,14.735-14.734,14.735s-14.734-6.631-14.734-14.734v-38.746
			V265.56H327.278z"/>
		<path style="fill:#FF974A;" d="M230.836,247.234l31.489-117.52l6.979-26.045L220.87,90.69l-6.98,26.045l-10.028,37.426
			c-2.098,7.828-10.218,12.517-18.046,10.419c-7.829-2.098-12.517-10.218-10.419-18.046l10.028-37.426
			c2.097-7.828-2.591-15.949-10.419-18.047c-7.828-2.097-15.949,2.592-18.047,10.42l-4.274,15.953
			c-2.098,7.828-10.218,12.517-18.046,10.419c-7.828-2.098-12.518-10.218-10.42-18.046l4.275-15.954l6.979-26.045l-32.792-8.786
			l-6.978,26.045L64.215,202.587l-7.576,28.274l-2.191,8.179l-9.768,36.452c-1.755,6.546,2.166,13.337,8.712,15.091l142.819,38.269
			c6.546,1.754,13.337-2.166,15.091-8.713l9.768-36.452L230.836,247.234z"/>
	</g>
</g>
<path d="M486.598,282.525h-26.964V265.56v-13.55c0-18.582-10.971-37.735-29.697-41.495c-6.588-11.032-20.781-18.18-33.376-19.837
	c-8.436-1.11-16.117,0.127-22.267,3.393c-9.587-9.198-25.667-12.487-40.216-10.57c-22.256,2.93-37.666,16.278-41.318,34.943
	c-14.75,4.034-25.625,17.555-25.625,33.566v13.55v26.963v197.143c0,12.309,10.013,22.322,22.321,22.322h147.857
	c12.309,0,22.322-10.014,22.322-22.322v-36.205h26.964c14.007,0,25.401-12.547,25.401-27.968V310.493
	C512,295.072,500.604,282.525,486.598,282.525z M301.925,237.219c5.523,0,10-4.477,10-10c0-19.142,18.954-23.125,24.763-23.89
	c12.119-1.592,24.206,2.436,25.864,8.629c1.047,3.907,4.344,6.798,8.354,7.326c4.008,0.524,7.943-1.412,9.965-4.915
	c2.705-4.684,10.046-4.263,13.079-3.863c9.701,1.277,18.323,7.354,19.551,11.935c1.171,4.372,5.133,7.411,9.659,7.411
	c12.327,0,16.476,15.217,16.476,22.158v3.55h-23.95c-5.523,0-10,4.477-10,10v43.479c0,2.567-2.168,4.735-4.734,4.735
	c-2.566,0-4.734-2.168-4.734-4.735v-16.516c0-13.639-11.097-24.735-24.736-24.735s-24.734,11.096-24.734,24.734v38.746
	c0,2.566-2.168,4.734-4.734,4.734s-4.734-2.168-4.734-4.734v-65.711c0-5.523-4.477-10-10-10h-40.145v-3.55
	C287.133,243.855,293.769,237.219,301.925,237.219z M439.634,489.667c0,1.259-1.064,2.322-2.322,2.322H289.454
	c-1.258,0-2.321-1.064-2.321-2.322V292.524V275.56h30.145v55.711c0,13.639,11.096,24.734,24.734,24.734
	c13.639,0,24.734-11.096,24.734-24.734v-38.746c0-2.567,2.168-4.735,4.735-4.735c2.567,0,4.735,2.168,4.735,4.735v16.516
	c0,13.639,11.096,24.734,24.734,24.734c13.638,0,24.734-11.096,24.734-24.734v-33.479h13.95v16.964v197.142H439.634z M492,425.494
	c0,4.561-2.852,7.969-5.402,7.969h-26.964V302.525h26.964c2.55,0,5.402,3.408,5.402,7.969V425.494z"/>
<path d="M363.384,371.54c-5.523,0-10,4.477-10,10v83.483c0,5.523,4.477,10,10,10c5.523,0,10-4.477,10-10V381.54
	C373.384,376.018,368.907,371.54,363.384,371.54z"/>
<path d="M412.669,371.54c-5.523,0-10,4.477-10,10v83.483c0,5.523,4.477,10,10,10c5.523,0,10-4.477,10-10V381.54
	C422.669,376.018,418.192,371.54,412.669,371.54z"/>
<path d="M314.099,420.475c-5.523,0-10,4.477-10,10v34.55c0,5.523,4.477,10,10,10s10-4.477,10-10v-34.55
	C324.099,424.952,319.622,420.475,314.099,420.475z"/>
<path d="M314.101,390.46c-5.523,0-10,4.477-10,10v0.198c0,5.523,4.477,10,10,10s10-4.477,10-10v-0.198
	C324.101,394.937,319.624,390.46,314.101,390.46z"/>
<path d="M271.985,132.302L282.47,93.17c2.398-8.95,1.155-18.321-3.501-26.385c-3.08-5.334-7.4-9.661-12.563-12.673
	c1.301-18.975-10.131-35.854-30.868-44.444c-13.558-5.616-29.939-6.603-41.578-0.198c-5.097-4.747-12.195-7.93-20.633-9.041
	c-12.595-1.659-28.156,1.573-37.373,10.525c-8.741-0.553-17.262,2.386-24.522,8.576c-7.019,5.984-12.451,14.666-14.902,23.818
	l-3.505,13.083c-0.001,0.001-0.001,0.003-0.002,0.004l-4.391,16.386l-26.046-6.98c-13.526-3.623-27.783,5.546-31.774,20.442
	L1.048,197.365c-3.991,14.896,3.769,29.964,17.298,33.589l26.045,6.979l-9.371,34.971c-1.541,5.746-0.744,11.759,2.242,16.932
	c2.986,5.172,7.795,8.868,13.541,10.408l142.82,38.269c1.913,0.513,3.856,0.767,5.788,0.767c3.869,0,7.693-1.017,11.142-3.009
	c5.172-2.986,8.869-7.795,10.408-13.542l51.021-190.417C271.983,132.308,271.984,132.305,271.985,132.302z M124.409,34.748
	c4.126-3.519,8.407-4.618,13.09-3.364c4.374,1.172,8.986-0.74,11.248-4.659c2.371-4.106,12.275-7.745,21.972-6.468
	c3.032,0.399,10.234,1.891,11.635,7.117c1.047,3.907,4.344,6.798,8.354,7.326c4.01,0.524,7.943-1.412,9.966-4.915
	c3.205-5.551,15.922-6.316,27.213-1.64c5.413,2.243,22.692,10.996,17.738,29.486c-0.687,2.562-0.327,5.292,0.999,7.588
	c1.326,2.297,3.511,3.973,6.073,4.659c3.79,1.015,6.971,3.468,8.956,6.906c1.985,3.438,2.52,7.419,1.504,11.209l-0.918,3.428
	L223.461,81.03c-0.333-0.089-0.667-0.161-1.001-0.215c-0.667-0.108-1.333-0.147-1.988-0.121c-0.036,0.002-0.07,0.008-0.106,0.01
	c-1.542,0.078-3.023,0.515-4.341,1.246c-2.289,1.269-4.082,3.424-4.812,6.151l-17.008,63.472c-0.664,2.479-3.323,4.012-5.799,3.348
	c-2.479-0.664-4.011-3.319-3.347-5.798l10.029-37.427c3.528-13.174-4.318-26.763-17.491-30.293
	c-13.174-3.526-26.763,4.318-30.293,17.492l-4.274,15.953c-0.664,2.479-3.32,4.013-5.798,3.348c-1.628-0.436-2.491-1.575-2.86-2.215
	c-0.37-0.64-0.924-1.956-0.489-3.583l11.254-41.999c1.43-5.335-1.736-10.818-7.071-12.247l-23.133-6.198l0.919-3.429
	C117.236,43.345,120.516,38.067,124.409,34.748z M23.523,211.635c-2.463-0.66-4.337-4.69-3.156-9.095L50.13,91.459
	c1.181-4.406,4.815-6.962,7.281-6.3l26.045,6.98L49.567,218.614L23.523,211.635z M201.643,317.551
	c-0.201,0.751-0.704,1.174-1.089,1.397c-0.317,0.183-0.967,0.456-1.754,0.245L55.98,280.924c-0.79-0.212-1.214-0.773-1.396-1.089
	c-0.223-0.386-0.446-1.003-0.245-1.754l51.022-190.419c0.001-0.002,0.002-0.003,0.002-0.005c0-0.001,0.001-0.002,0.001-0.003
	l4.39-16.385l13.475,3.61l-8.666,32.339c-3.53,13.174,4.316,26.762,17.491,30.293c6.367,1.705,13.029,0.823,18.76-2.486
	c5.732-3.309,9.828-8.637,11.533-15.004l4.275-15.953c0.665-2.479,3.321-4.011,5.799-3.349c2.479,0.665,4.012,3.321,3.348,5.799
	l-10.028,37.426c-1.706,6.366-0.823,13.029,2.486,18.76c3.309,5.732,8.638,9.828,15.004,11.533c2.136,0.573,4.283,0.846,6.396,0.846
	c10.919,0,20.939-7.298,23.897-18.335l14.419-53.812l29.116,7.802L201.643,317.551z"/>
<path d="M158.564,183.715c-5.335-1.432-10.819,1.736-12.248,7.071l-21.607,80.639c-1.43,5.335,1.736,10.818,7.071,12.248
	c0.867,0.232,1.738,0.343,2.595,0.343c4.415,0,8.456-2.947,9.653-7.414l21.607-80.639
	C167.065,190.628,163.899,185.145,158.564,183.715z"/>
<path d="M110.959,170.959c-5.335-1.431-10.819,1.736-12.248,7.071l-21.607,80.638c-1.43,5.335,1.736,10.818,7.071,12.248
	c0.867,0.232,1.738,0.343,2.595,0.343c4.415,0,8.456-2.947,9.653-7.414l21.607-80.638
	C119.459,177.872,116.293,172.389,110.959,170.959z"/>
<path d="M201.282,214.747c-5.332-1.435-10.82,1.725-12.255,7.059l-0.052,0.192c-1.435,5.333,1.726,10.82,7.059,12.255
	c0.87,0.234,1.744,0.346,2.605,0.346c4.411,0,8.449-2.941,9.65-7.404l0.052-0.192C209.775,221.668,206.615,216.182,201.282,214.747z
	"/>
<path d="M193.505,243.738c-5.335-1.43-10.818,1.736-12.248,7.071l-8.942,33.372c-1.429,5.335,1.736,10.818,7.071,12.247
	c0.867,0.232,1.738,0.343,2.595,0.343c4.415,0,8.455-2.947,9.653-7.414l8.942-33.372C202.005,250.65,198.84,245.167,193.505,243.738
	z"/>
<g>
</g>
<g>
</g>
<g>
</g>
<g>
</g>
<g>
</g>
<g>
</g>
<g>
</g>
<g>
</g>
<g>
</g>
<g>
</g>
<g>
</g>
<g>
</g>
<g>
</g>
<g>
</g>
<g>
</g>
</svg>
